 <svg version="1.0" xmlns="http://www.w3.org/2000/svg"  width="51.000000pt" height="62.000000pt" viewBox="0 0 51.000000 62.000000"  preserveAspectRatio="xMidYMid meet">  <g transform="translate(0.000000,62.000000) scale(0.100000,-0.100000)" fill="#000000" stroke="none"> <path d="M220 503 c-23 -8 -150 -134 -166 -165 -31 -60 -12 -103 95 -208 84 -83 142 -82 230 8 77 76 101 113 101 151 0 45 -16 69 -94 144 -76 73 -114 89 -166 70z m156 -105 c106 -107 106 -113 -8 -224 -107 -106 -113 -106 -224 8 -106 107 -106 113 8 224 107 106 113 106 224 -8z"/> <path d="M177 372 c-76 -77 -75 -91 7 -170 35 -34 70 -62 76 -62 6 0 41 28 76 62 83 79 83 94 6 171 -75 74 -91 74 -165 -1z m133 -28 c0 -11 -6 -14 -20 -9 -18 6 -20 2 -20 -49 0 -43 -3 -56 -15 -56 -12 0 -15 13 -15 56 0 51 -2 55 -20 49 -14 -5 -20 -2 -20 9 0 13 12 16 55 16 43 0 55 -3 55 -16z m51 -41 c9 -24 6 -31 -33 -70 -23 -24 -47 -43 -52 -43 -5 0 0 9 12 20 14 13 22 33 22 52 0 26 23 68 37 68 2 0 8 -12 14 -27z m-173 5 c13 -13 17 -68 5 -68 -14 0 -43 34 -43 50 0 30 18 38 38 18z"/> </g> </svg> 